<?xml version="1.0" encoding="UTF-8"?><svg id="Layer_1" xmlns="http://www.w3.org/2000/svg" viewBox="0 0 360 163.58"><defs><style>.cls-1{fill:#fff;}</style></defs><path class="cls-1" d="m197.68,47.71c2.16.48,4.29-.88,4.77-3.04.48-2.16-.88-4.29-3.04-4.77l-27-6c-1.19-.27-2.42.03-3.37.79-.95.76-1.5,1.91-1.5,3.12l.02,61.37c0,2.2,1.78,3.98,3.97,4l24.98.16h.03c2.2,0,3.99-1.77,4-3.97.01-2.21-1.77-4.01-3.97-4.03l-21.01-.13v-19.29s20.98,0,20.98,0c2.21,0,4-1.79,4-4s-1.79-4-4-4h-20.99v-25.12s22.12,4.92,22.12,4.92Z"/><path class="cls-1" d="m241.72,53.19c.48-2.16-.87-4.3-3.02-4.78l-26-5.85c-1.19-.27-2.43.02-3.38.78-.95.76-1.5,1.91-1.5,3.12l.02,52.86c0,2.21,1.79,4,4,4h24.98c2.21,0,4-1.79,4-4s-1.79-4-4-4h-20.98v-15.61s20.98,0,20.98,0c2.21,0,4-1.79,4-4s-1.79-4-4-4h-20.99v-20.25s21.11,4.75,21.11,4.75c2.15.48,4.3-.87,4.78-3.02Z"/><path class="cls-1" d="m272.44,89.11c.39,0,.79-.06,1.17-.18,1.68-.52,2.83-2.07,2.83-3.82v-25.51c0-2.21-1.79-4-4-4s-4,1.79-4,4v12.46l-13.05-19.28c-.98-1.46-2.8-2.1-4.49-1.58-1.68.52-2.83,2.07-2.83,3.82v30.08c0,2.21,1.79,4,4,4s4-1.79,4-4v-17.04l13.05,19.28c.76,1.12,2.01,1.76,3.31,1.76Z"/><path class="cls-1" d="m305.23,89.89s0,0,0,0c-1.65-.71-13.52-6.28-13.52-19.72s11.49-15.3,12.84-15.5c.07-.01,7.19-1.04,11.85,2.97,2.95,2.54,4.45,6.76,4.45,12.54,0,2.21,1.79,4,4,4s4-1.79,4-4c0-8.25-2.46-14.53-7.3-18.66-7.51-6.39-17.82-4.81-18.18-4.76-6.8.96-19.66,7.09-19.66,23.42,0,7.89,2.9,13.79,6.42,18.04-8.33.9-16.16,4.78-21.91,10.97-6.04,6.49-9.37,14.96-9.37,23.83,0,19.3,15.7,35,35,35s35-15.7,35-35c0-14.95-9.49-28.25-23.62-33.11Zm-11.38,60.11c-14.89,0-27-12.11-27-27,0-6.85,2.57-13.37,7.22-18.38,5.09-5.48,12.3-8.62,19.78-8.62,3.01,0,5.96.49,8.78,1.46,10.9,3.75,18.22,14.01,18.22,25.54,0,14.89-12.11,27-27,27Z"/><path class="cls-1" d="m159.4,1.19c-.75-.76-1.78-1.19-2.85-1.19h-14c-2.21,0-4,1.79-4,4s1.79,4,4,4h9.95l-.21,17.12v85.38h-16.82V43.4c0-2.21-1.79-4-4-4h-15.93c-2.21,0-4,1.79-4,4s1.79,4,4,4h11.93v67.1c0,2.21,1.79,4,4,4h24.82c2.21,0,4-1.79,4-4V25.17s.25-21.12.25-21.12c.01-1.07-.4-2.1-1.15-2.86Z"/><path class="cls-1" d="m110.87,141.65c5.81-7.52,9.28-16.94,9.28-27.15,0-24.54-19.96-44.5-44.5-44.5s-44.5,19.96-44.5,44.5,19.96,44.5,44.5,44.5c11.45,0,21.89-4.35,29.79-11.47l11.75,10.46c.76.68,1.71,1.01,2.66,1.01,1.1,0,2.2-.45,2.99-1.34,1.47-1.65,1.32-4.18-.33-5.65l-11.64-10.36Zm-5.98-5.32l-11.09-9.87c-1.65-1.47-4.18-1.32-5.65.33-1.47,1.65-1.32,4.18.33,5.65l10.94,9.74c-6.39,5.5-14.69,8.83-23.77,8.83-20.13,0-36.5-16.37-36.5-36.5s16.37-36.5,36.5-36.5,36.5,16.37,36.5,36.5c0,8.18-2.7,15.74-7.26,21.83Z"/><path class="cls-1" d="m169.14,25.94l108.83,24.35c.29.07.59.1.88.1,1.83,0,3.48-1.27,3.9-3.13.48-2.16-.87-4.29-3.03-4.78l-108.83-24.35c-2.16-.48-4.29.87-4.78,3.03-.48,2.16.87,4.29,3.03,4.78Z"/><path class="cls-1" d="m249.31,110.5h-79.44c-2.21,0-4,1.79-4,4s1.79,4,4,4h79.44c2.21,0,4-1.79,4-4s-1.79-4-4-4Z"/><path class="cls-1" d="m127.43,140.53v-10.79c0-1.31.71-2.02,2.02-2.02h6.39c2.94,0,4.34,1.91,4.34,3.78s-1.13,3.09-2.54,3.4c1.58.24,2.82,1.76,2.82,3.63,0,2.16-1.45,4.03-4.36,4.03h-6.65c-1.31,0-2.02-.71-2.02-2.02Zm7.54-7.07c.78,0,1.31-.56,1.31-1.29s-.53-1.27-1.31-1.27h-3.72v2.56h3.72Zm.13,5.92c.91,0,1.47-.56,1.47-1.36,0-.76-.53-1.4-1.47-1.4h-3.85v2.76h3.85Z"/><path class="cls-1" d="m142.56,140.82v-11.37c0-1.05.85-1.94,1.91-1.94s1.91.89,1.91,1.94v11.37c0,1.05-.85,1.94-1.91,1.94s-1.91-.89-1.91-1.94Z"/><path class="cls-1" d="m161.51,140.89c0,.96-.76,1.87-1.82,1.87-.6,0-1.09-.27-1.4-.62l-4.34-5.12-1.07,1.22v2.58c0,1.05-.85,1.94-1.91,1.94s-1.91-.89-1.91-1.94v-11.37c0-1.05.85-1.94,1.91-1.94s1.91.89,1.91,1.94v4.36l5.07-5.7c.36-.4.82-.6,1.33-.6,1.05,0,1.78.91,1.78,1.8,0,.47-.16.89-.42,1.18l-3.96,4.2,4.4,4.98c.27.31.42.73.42,1.2Z"/><path class="cls-1" d="m163.6,140.53v-10.79c0-1.31.71-2.02,2.02-2.02h7.43c.87,0,1.6.73,1.6,1.62s-.73,1.6-1.6,1.6h-5.63v2.47h5.47c.87,0,1.6.73,1.6,1.62s-.73,1.62-1.6,1.62h-5.47v2.67h5.63c.87,0,1.6.71,1.6,1.6s-.73,1.62-1.6,1.62h-7.43c-1.31,0-2.02-.71-2.02-2.02Z"/><path class="cls-1" d="m181.82,139.98c0-.96.78-1.76,1.74-1.76.36,0,.67.09.93.27,1.02.64,2.2,1.07,3.6,1.07,1.31,0,2.11-.56,2.11-1.27,0-.85-.96-1.18-2.54-1.51-2.45-.49-5.87-1.11-5.87-4.63,0-2.49,2.11-4.65,6.14-4.65,1.62,0,3.23.36,4.61,1.07.56.27.96.87.96,1.53,0,.96-.78,1.74-1.73,1.74-.29,0-.58-.09-.82-.2-1.22-.58-2.31-.87-3.25-.87-1.49,0-1.98.51-1.98,1.16,0,.78.91,1.05,2.56,1.36,2.45.51,5.83,1.22,5.83,4.58,0,2.98-2.2,4.96-6.18,4.96-2.18,0-3.85-.49-5.25-1.36-.51-.31-.85-.85-.85-1.49Z"/><path class="cls-1" d="m205.86,140.82v-4.23h-6.16v4.23c0,1.05-.85,1.94-1.91,1.94s-1.91-.89-1.91-1.94v-11.37c0-1.05.85-1.94,1.91-1.94s1.91.89,1.91,1.94v3.8h6.16v-3.8c0-1.05.85-1.94,1.91-1.94s1.91.89,1.91,1.94v11.37c0,1.05-.85,1.94-1.91,1.94s-1.91-.89-1.91-1.94Z"/><path class="cls-1" d="m225.86,140.82c0,1.07-.87,1.94-1.94,1.94-.85,0-1.6-.58-1.82-1.36l-.42-1.27h-6.09l-.42,1.27c-.24.78-.98,1.36-1.82,1.36-1.07,0-1.94-.87-1.94-1.94,0-.22.04-.47.13-.67l3.94-10.46c.49-1.27,1.71-2.18,3.16-2.18s2.67.91,3.14,2.18l3.96,10.46c.07.2.13.44.13.67Zm-5.27-3.92l-1.96-5.85-1.96,5.85h3.91Z"/><path class="cls-1" d="m239.69,139.67c.24.33.4.76.4,1.2,0,1.05-.89,1.89-1.89,1.89-.69,0-1.25-.38-1.56-.8l-3.09-4.43h-2.16v3.29c0,1.05-.85,1.94-1.91,1.94s-1.91-.89-1.91-1.94v-11.08c0-1.31.71-2.02,2.02-2.02h5.41c3.29,0,5.16,2.18,5.16,4.94,0,2.31-1.29,3.69-2.54,4.29l2.07,2.71Zm-8.3-5.38h3.03c1,0,1.85-.65,1.85-1.67s-.85-1.67-1.85-1.67h-3.03v3.34Z"/><path class="cls-1" d="m242.27,140.53v-10.79c0-1.31.71-2.02,2.02-2.02h7.43c.87,0,1.6.73,1.6,1.62s-.73,1.6-1.6,1.6h-5.63v2.47h5.47c.87,0,1.6.73,1.6,1.62s-.73,1.62-1.6,1.62h-5.47v2.67h5.63c.87,0,1.6.71,1.6,1.6s-.73,1.62-1.6,1.62h-7.43c-1.31,0-2.02-.71-2.02-2.02Z"/></svg>